<?xml version="1.0" encoding="UTF-8"?>
<!DOCTYPE svg PUBLIC "-//W3C//DTD SVG 1.1//EN" "http://www.w3.org/Graphics/SVG/1.1/DTD/svg11.dtd">
<!-- Creator: CorelDRAW 2019 (64 Bit) -->
<svg xmlns="http://www.w3.org/2000/svg" xml:space="preserve" width="31px" height="29.91px" version="1.1" style="shape-rendering:geometricPrecision; text-rendering:geometricPrecision; image-rendering:optimizeQuality; fill-rule:evenodd; clip-rule:evenodd"
viewBox="0 0 312000 301000"
 xmlns:xlink="http://www.w3.org/1999/xlink"
 xmlns:xodm="http://www.corel.com/coreldraw/odm/2003">
 <defs>
  <style type="text/css">
   <![CDATA[
    .fil0 {fill:#0069C0}
   ]]>
  </style>
 </defs>
 <g id="Camada_x0020_1">
  <metadata id="CorelCorpID_0Corel-Layer"/>
  <path class="fil0" d="M264000 188000l-48000 0 0 -48000c0,-4000 -4000,-8000 -8000,-8000 -5000,0 -9000,4000 -9000,8000l0 48000 -48000 0c-4000,0 -8000,4000 -8000,9000 0,4000 4000,8000 8000,8000l48000 0 0 48000c0,4000 4000,8000 9000,8000 4000,0 8000,-4000 8000,-8000l0 -48000 48000 0c5000,0 8000,-4000 8000,-8000 0,-5000 -3000,-9000 -8000,-9000zm-56000 98000c24000,0 47000,-10000 63000,-26000 16000,-17000 26000,-39000 26000,-63000 0,-25000 -10000,-47000 -26000,-64000 -16000,-16000 -39000,-26000 -63000,-26000 -25000,0 -47000,10000 -63000,26000 -16000,17000 -26000,39000 -26000,64000 0,24000 10000,46000 26000,63000 16000,16000 38000,26000 63000,26000zm-126000 -263000l80000 0 0 -6000c0,-5000 2000,-9000 5000,-12000l0 0c3000,-3000 7000,-5000 12000,-5000l49000 0c4000,0 8000,2000 11000,5000l1000 0c3000,3000 4000,7000 4000,12000l0 49000c0,4000 -1000,8000 -4000,11000l-1000 0c-3000,3000 -7000,5000 -11000,5000l-10000 0 0 11000c25000,2000 47000,13000 64000,30000 18000,19000 30000,45000 30000,74000 0,28000 -12000,54000 -30000,73000 -19000,19000 -45000,31000 -74000,31000 -29000,0 -55000,-12000 -74000,-31000 -15000,-15000 -26000,-34000 -29000,-56000l0 0 -23000 0 0 6000c0,5000 -2000,9000 -5000,12000l0 0c-3000,3000 -7000,5000 -11000,5000l-49000 0c-5000,0 -9000,-2000 -12000,-5000l0 0c-3000,-3000 -5000,-7000 -5000,-12000l0 -49000c0,-5000 2000,-9000 5000,-12000l0 0c3000,-3000 7000,-5000 12000,-5000l9000 0 0 -72000 -9000 0c-5000,0 -9000,-2000 -12000,-5000l0 0c-3000,-3000 -5000,-7000 -5000,-11000l0 -49000c0,-5000 2000,-9000 5000,-12000l0 0c3000,-3000 7000,-5000 12000,-5000l49000 0c4000,0 8000,2000 11000,5000l0 0c3000,3000 5000,7000 5000,12000l0 6000zm120000 69000l0 -10000 -23000 0c-5000,0 -9000,-2000 -12000,-5000l0 0c-3000,-3000 -5000,-7000 -5000,-11000l0 -28000 -80000 0 0 28000c0,4000 -2000,8000 -5000,11000l0 0c-3000,3000 -7000,5000 -11000,5000l-24000 0 0 72000 24000 0c4000,0 8000,2000 11000,5000l0 0c3000,3000 5000,7000 5000,12000l0 27000 21000 0c0,0 0,-1000 0,-1000 0,-29000 12000,-55000 31000,-74000 18000,-18000 42000,-29000 68000,-31000zm-138000 81000l-46000 0 0 45000 46000 0 0 -45000zm162000 -155000l-46000 0 0 46000 46000 0 0 -46000zm-162000 0l-46000 0 0 46000 46000 0 0 -46000z"/>
 </g>
</svg>
