<svg xmlns="http://www.w3.org/2000/svg" width="110" height="20" viewBox="0 0 147.183 34.611">
  <g id="Componente_16_1" data-name="Componente 16 – 1" style="mix-blend-mode: normal;isolation: isolate">
    <g id="Grupo_2" data-name="Grupo 2" transform="translate(471.61 -184)">
      <path id="Caminho_1" data-name="Caminho 1" d="M67.157,249.835H63.17v-3.928Zm7.939-.062L63.17,237.825H86.63L75.337,249.5Z" transform="translate(-534.78 -43.57)" fill="rgba(255,255,255,0.6)" fill-rule="evenodd"/>
      <path id="Caminho_2" data-name="Caminho 2" d="M225.387,201.79v12.335a4.093,4.093,0,0,0,3.295,1.433c2.669,0,4.554-.634,5.67-1.9s1.666-3.287,1.666-6.062q0-7.193-6.9-7.193a4.825,4.825,0,0,0-3.732,1.388m-1.169,16.731-1.237,1.742h-3.114V187.343l5.519-1.327v11.031a9.08,9.08,0,0,1,4.818-1.35,11.153,11.153,0,0,1,8.377,3.28,11.618,11.618,0,0,1,3.182,8.415q0,5.949-3.2,9.41a11.247,11.247,0,0,1-8.679,3.461A9.276,9.276,0,0,1,224.219,218.521Z" transform="translate(-660.462 -2.016)" fill="#fff"/>
      <path id="Caminho_3" data-name="Caminho 3" d="M486.177,219.81,479.233,209.1l-2.646,2.8v7.909h-5.519V187.343l5.519-1.327v19.234l7.872-9.1h6.65l-7.992,8.973,9.621,14.688Z" transform="translate(-861.94 -2.016)" fill="#fff"/>
      <path id="Caminho_4" data-name="Caminho 4" d="M337.184,242.409c-.015-.151-.03-.3-.038-.467s-.008-.407-.008-.746a11.494,11.494,0,0,1,1.546-6.1,13.136,13.136,0,0,1,4.886-4.441c.927-.55,2.119-1.161,3.574-1.847s2.405-1.139,2.85-1.38a5.535,5.535,0,0,0,2.187-2.1,5.9,5.9,0,0,0,.792-3.031,4.667,4.667,0,0,0-1.742-3.74,6.7,6.7,0,0,0-4.464-1.47,6.459,6.459,0,0,0-3.446.89,5.855,5.855,0,0,0-2.254,2.594,5.712,5.712,0,0,1,.731-.166,5.486,5.486,0,0,1,.814-.053,3.164,3.164,0,0,1,2.27.807,2.85,2.85,0,0,1,.852,2.172,3.452,3.452,0,0,1-1,2.578,3.571,3.571,0,0,1-2.624,1A4.034,4.034,0,0,1,339,225.565a4.834,4.834,0,0,1-1.229-3.416,7.193,7.193,0,0,1,3.061-5.813,11.755,11.755,0,0,1,7.525-2.42,13.1,13.1,0,0,1,8.332,2.45,7.87,7.87,0,0,1,3.114,6.5,7.153,7.153,0,0,1-1.923,5.308q-1.923,1.911-6.869,3.174l-.136.023q-7.973,1.979-9.855,5.851a7.426,7.426,0,0,1,1.87-.89,7.012,7.012,0,0,1,2.066-.294,23.108,23.108,0,0,1,4.924.724,22.947,22.947,0,0,0,4.313.724,3.147,3.147,0,0,0,2.714-1.161,7.705,7.705,0,0,0,1.04-3.951h2.579v.618q0,4.761-1.847,7.382A5.956,5.956,0,0,1,353.5,243a10.284,10.284,0,0,1-2.767-.445,23.493,23.493,0,0,1-3.461-1.319c-.264-.136-.648-.332-1.146-.6a9.207,9.207,0,0,0-3.778-1.3,2.15,2.15,0,0,0-1.757.739,4.436,4.436,0,0,0-.784,2.33Z" transform="translate(-754.521 -24.394)" fill="#fff"/>
      <!-- <path id="Caminho_5" data-name="Caminho 5" d="M589.349,278.346v3.1h-.484v-3.1h-1.127v-.435h2.788v.435Z" transform="translate(-955.518 -75.722)" fill="#fff"/> -->
      <!-- <path id="Caminho_6" data-name="Caminho 6" d="M611.769,278.346v.979h1.142v.41h-1.142v1.275h1.6v.435h-2.086v-3.534h2.086v.435Z" transform="translate(-974.404 -75.722)" fill="#fff"/> -->
      <!-- <path id="Caminho_7" data-name="Caminho 7" d="M633.667,277.779l-.161.413a1.241,1.241,0,0,0-.729-.17.871.871,0,0,0-.746.4,1.765,1.765,0,0,0-.281,1.033,1.563,1.563,0,0,0,.288.979.965.965,0,0,0,1.508.026l.265.369a1.471,1.471,0,0,1-1.081.415,1.319,1.319,0,0,1-1.091-.5,2.053,2.053,0,0,1-.4-1.318,2.02,2.02,0,0,1,.425-1.315,1.35,1.35,0,0,1,1.1-.524,1.779,1.779,0,0,1,.9.193" transform="translate(-990.41 -75.461)" fill="#fff"/> -->
      <!-- <path id="Caminho_8" data-name="Caminho 8" d="M656.48,281.445v-1.71h-1.542v1.71h-.484v-3.534h.484v1.413h1.542v-1.413h.484v3.534Z" transform="translate(-1009.029 -75.722)" fill="#fff"/> -->
      <!-- <path id="Caminho_9" data-name="Caminho 9" d="M680.509,281.494l-1.829-2.585v2.536h-.46v-3.534h.193l1.779,2.447v-2.447h.46v3.583Z" transform="translate(-1028.092 -75.722)" fill="#fff"/> -->
      <!-- <path id="Caminho_10" data-name="Caminho 10" d="M701.245,279.386a1.973,1.973,0,0,0,.24,1.015.748.748,0,0,0,.676.408.859.859,0,0,0,.753-.374,1.825,1.825,0,0,0,.259-1.049q0-1.365-1.012-1.365a.758.758,0,0,0-.682.366,1.847,1.847,0,0,0-.234,1m-.509,0a2.084,2.084,0,0,1,.385-1.283,1.228,1.228,0,0,1,1.039-.517,1.381,1.381,0,0,1,1.129.475,2.028,2.028,0,0,1,.392,1.325,2.129,2.129,0,0,1-.394,1.364,1.358,1.358,0,0,1-1.128.493,1.22,1.22,0,0,1-1.046-.521A2.217,2.217,0,0,1,700.736,279.386Z" transform="translate(-1046.15 -75.461)" fill="#fff"/> -->
      <!-- <path id="Caminho_11" data-name="Caminho 11" d="M725.838,281.445v-3.534h.484v3.1h1.6v.435Z" transform="translate(-1066.284 -75.722)" fill="#fff"/> -->
      <!-- <path id="Caminho_12" data-name="Caminho 12" d="M745.57,279.386a1.974,1.974,0,0,0,.24,1.015.748.748,0,0,0,.676.408.858.858,0,0,0,.753-.374,1.825,1.825,0,0,0,.259-1.049q0-1.365-1.012-1.365a.758.758,0,0,0-.682.366,1.848,1.848,0,0,0-.234,1m-.509,0a2.084,2.084,0,0,1,.386-1.283,1.228,1.228,0,0,1,1.039-.517,1.381,1.381,0,0,1,1.129.475,2.027,2.027,0,0,1,.392,1.325,2.128,2.128,0,0,1-.394,1.364,1.358,1.358,0,0,1-1.128.493,1.221,1.221,0,0,1-1.046-.521A2.218,2.218,0,0,1,745.061,279.386Z" transform="translate(-1081.702 -75.461)" fill="#fff"/> -->
      <!-- <path id="Caminho_13" data-name="Caminho 13" d="M771.935,277.893l-.2.4a1.2,1.2,0,0,0-.714-.269,1.072,1.072,0,0,0-.876.391,1.583,1.583,0,0,0-.32,1.036,1.481,1.481,0,0,0,.315.987,1.056,1.056,0,0,0,.856.374.859.859,0,0,0,.624-.231v-.826h-.489v-.41h.974v1.539a1.445,1.445,0,0,1-.538.264,2.412,2.412,0,0,1-.672.1,1.441,1.441,0,0,1-1.155-.5,1.965,1.965,0,0,1-.423-1.32,1.9,1.9,0,0,1,.464-1.331,1.613,1.613,0,0,1,1.255-.511,1.31,1.31,0,0,1,.9.307" transform="translate(-1101.155 -75.461)" fill="#fff"/> -->
      <!-- <path id="Caminho_14" data-name="Caminho 14" d="M794.454,279.863v1.583h-.484v-1.583l-1.137-1.951h.5l.88,1.544.88-1.544h.5Z" transform="translate(-1120.018 -75.722)" fill="#fff"/>
      <path id="Caminho_15" data-name="Caminho 15" d="M588.522,310.639l.176-.445a1.23,1.23,0,0,0,.338.165,1.168,1.168,0,0,0,.362.067.655.655,0,0,0,.455-.155.506.506,0,0,0,.172-.393.618.618,0,0,0-.1-.332,1.172,1.172,0,0,0-.48-.335l-.286-.133a1.136,1.136,0,0,1-.507-.4,1.035,1.035,0,0,1-.144-.558.86.86,0,0,1,.281-.658,1.016,1.016,0,0,1,.721-.26,1.308,1.308,0,0,1,.817.191l-.143.422a1.1,1.1,0,0,0-.295-.137,1.178,1.178,0,0,0-.367-.066.528.528,0,0,0-.388.14.483.483,0,0,0-.142.36.587.587,0,0,0,.051.246.511.511,0,0,0,.141.185,2.1,2.1,0,0,0,.371.21l.29.139a.986.986,0,0,1,.655,1.013.863.863,0,0,1-.32.676,1.26,1.26,0,0,1-.857.278,1.419,1.419,0,0,1-.8-.222" transform="translate(-956.139 -99.217)" fill="#fff"/>
      <path id="Caminho_16" data-name="Caminho 16" d="M608.46,309a1.973,1.973,0,0,0,.24,1.015.748.748,0,0,0,.676.408.859.859,0,0,0,.753-.374,1.827,1.827,0,0,0,.259-1.049q0-1.365-1.012-1.365a.758.758,0,0,0-.682.366,1.846,1.846,0,0,0-.234,1m-.509,0a2.084,2.084,0,0,1,.385-1.284,1.229,1.229,0,0,1,1.039-.516,1.382,1.382,0,0,1,1.129.475A2.027,2.027,0,0,1,610.9,309a2.128,2.128,0,0,1-.394,1.364,1.359,1.359,0,0,1-1.128.493,1.22,1.22,0,0,1-1.046-.522A2.218,2.218,0,0,1,607.951,309Z" transform="translate(-971.731 -99.217)" fill="#fff"/>
      <path id="Caminho_17" data-name="Caminho 17" d="M633.054,311.063v-3.534h.484v3.1h1.6v.435Z" transform="translate(-991.865 -99.477)" fill="#fff"/>
      <path id="Caminho_18" data-name="Caminho 18" d="M653.125,307.529h.484v2.418a.708.708,0,0,0,.747.741.764.764,0,0,0,.562-.2.739.739,0,0,0,.2-.549v-2.406h.484v2.457a1.066,1.066,0,0,1-.334.836,1.551,1.551,0,0,1-1.825.006,1.087,1.087,0,0,1-.321-.844Z" transform="translate(-1007.963 -99.478)" fill="#fff"/>
      <path id="Caminho_19" data-name="Caminho 19" d="M676.736,307.964v3.1h-.484v-3.1h-1.127v-.435h2.788v.435Z" transform="translate(-1025.608 -99.477)" fill="#fff"/> -->
      <!-- <rect id="Retângulo_1" data-name="Retângulo 1" width="0.485" height="3.534" transform="translate(-345.739 208.051)" fill="#fff"/>
      <path id="Caminho_20" data-name="Caminho 20" d="M712.709,309a1.971,1.971,0,0,0,.24,1.015.748.748,0,0,0,.676.408.859.859,0,0,0,.753-.374,1.826,1.826,0,0,0,.259-1.049q0-1.365-1.012-1.365a.758.758,0,0,0-.682.366,1.846,1.846,0,0,0-.234,1m-.509,0a2.085,2.085,0,0,1,.385-1.284,1.229,1.229,0,0,1,1.039-.516,1.381,1.381,0,0,1,1.129.475,2.027,2.027,0,0,1,.392,1.325,2.128,2.128,0,0,1-.394,1.364,1.359,1.359,0,0,1-1.128.493,1.22,1.22,0,0,1-1.046-.522A2.217,2.217,0,0,1,712.2,309Z" transform="translate(-1055.345 -99.217)" fill="#fff"/>
      <path id="Caminho_21" data-name="Caminho 21" d="M739.591,311.112l-1.829-2.585v2.536h-.46v-3.534h.193l1.779,2.447v-2.447h.46v3.583Z" transform="translate(-1075.479 -99.477)" fill="#fff"/> -->
      <!-- <path id="Caminho_22" data-name="Caminho 22" d="M759.828,310.639l.176-.445a1.23,1.23,0,0,0,.338.165,1.167,1.167,0,0,0,.361.067.654.654,0,0,0,.455-.155.505.505,0,0,0,.172-.393.619.619,0,0,0-.1-.332,1.17,1.17,0,0,0-.48-.335l-.286-.133a1.138,1.138,0,0,1-.506-.4,1.035,1.035,0,0,1-.144-.558.859.859,0,0,1,.281-.658,1.015,1.015,0,0,1,.721-.26,1.308,1.308,0,0,1,.817.191l-.143.422a1.1,1.1,0,0,0-.295-.137,1.18,1.18,0,0,0-.367-.066.528.528,0,0,0-.388.14.483.483,0,0,0-.141.36.591.591,0,0,0,.051.246.511.511,0,0,0,.141.185,2.1,2.1,0,0,0,.371.21l.29.139a.987.987,0,0,1,.655,1.013.863.863,0,0,1-.32.676,1.261,1.261,0,0,1-.857.278,1.418,1.418,0,0,1-.8-.222" transform="translate(-1093.538 -99.217)" fill="#fff"/> -->
      <path id="Caminho_23" data-name="Caminho 23" d="M63.18,261.955l.038,15.868,7.943-8ZM79.243,269.9l7.885,7.629v-8.121L75.237,257.832l-4.075,4.039,4.1,4.1.306.334,3.707,3.567Z" transform="translate(-534.788 -59.617)" fill="#fff" fill-rule="evenodd"/>
    </g>
  </g>
</svg>
