<!-- Generated by IcoMoon.io -->
<svg version="1.1" xmlns="http://www.w3.org/2000/svg" width="60" height="32" viewBox="0 0 60 32">
<title>ico_bateria_03</title>
<path d="M58.496 22.287c-0.757 0.757-1.765 1.172-2.831 1.172h-1.047c-0.304 3.458-0.796 6.733-1.471 7.403-0.757 0.757-1.76 1.177-2.831 1.177h-45.638c-1.066 0-2.074-0.42-2.836-1.177-1.191-1.191-1.842-10.441-1.842-14.864 0-4.418 0.651-13.668 1.842-14.859 0.762-0.757 1.765-1.177 2.836-1.177h45.638c1.071 0 2.074 0.42 2.831 1.177 0.675 0.67 1.167 3.945 1.471 7.403h1.047c1.066 0 2.074 0.415 2.831 1.172 1.066 1.071 1.186 4.755 1.186 6.284 0 1.538-0.121 5.218-1.186 6.289v0zM6.525 26.945v-21.91h11.257v21.91h-11.257zM21.481 26.945v-21.91h11.256v21.91h-11.257zM35.993 26.945v-21.91h11.257v21.91h-11.257zM56.528 11.536c-0.246-0.212-0.545-0.323-0.863-0.323h-0.844c0.116 1.871 0.174 3.603 0.174 4.784 0 1.186-0.058 2.923-0.174 4.789h0.844c0.318 0 0.617-0.111 0.863-0.323 0.207-0.506 0.477-2.349 0.477-4.466 0-2.112-0.27-3.955-0.477-4.461zM51.942 8.541c-0.265-2.763-0.608-4.939-0.825-5.638-0.231-0.174-0.511-0.27-0.801-0.27h-45.638c-0.289 0-0.574 0.096-0.801 0.27-0.386 1.23-1.206 7.147-1.206 13.094 0 5.956 0.82 11.869 1.206 13.099 0.227 0.174 0.511 0.27 0.801 0.27h45.638c0.289 0 0.569-0.096 0.801-0.27 0.217-0.699 0.559-2.874 0.825-5.638 0.039-0.429 0.376-2.778 0.376-7.461 0-4.673-0.338-7.022-0.376-7.456v0z"></path>
</svg>
