<!-- Generated by IcoMoon.io -->
<svg version="1.1" xmlns="http://www.w3.org/2000/svg" width="28.99px" height="22.28px" viewBox="0 0 43 32">
 <defs>
  <style type="text/css">
   <![CDATA[
    .fil0 {fill:#373435}
   ]]>
  </style>
 </defs>
<title>sinal_dados_moveis</title>
<path d="M22.945 21.617l-3.513-3.557-5.465 5.422v-20.863h-4.988v20.863l-5.422-5.422-3.557 3.557 10.583 10.106c0.174 0.174 0.434 0.304 0.651 0.39 0.434 0.13 0.824-0.087 1.128-0.39l10.583-10.106zM20.299 10.383l3.513 3.513 5.465-5.422v20.906h4.988v-20.906l5.465 5.422 3.513-3.513-10.583-10.106c-0.304-0.347-0.694-0.52-1.128-0.39-0.217 0.043-0.52 0.217-0.651 0.347v0l-10.583 10.149z"></path>
</svg>
