<?xml version="1.0" encoding="UTF-8"?>
<!DOCTYPE svg PUBLIC "-//W3C//DTD SVG 1.1//EN" "http://www.w3.org/Graphics/SVG/1.1/DTD/svg11.dtd">
<!-- Creator: CorelDRAW 2019 (64 Bit) -->
<svg xmlns="http://www.w3.org/2000/svg" xml:space="preserve" width="22px" height="22px" version="1.1" style="shape-rendering:geometricPrecision; text-rendering:geometricPrecision; image-rendering:optimizeQuality; fill-rule:evenodd; clip-rule:evenodd"
viewBox="0 0 2361000 1722000"
 xmlns:xlink="http://www.w3.org/1999/xlink"
 xmlns:xodm="http://www.corel.com/coreldraw/odm/2003">
 <defs>
  <style type="text/css">
   <![CDATA[
    .fil0 {fill:#878787;fill-rule:nonzero}
   ]]>
  </style>
 </defs>
 <g id="Camada_x0020_1">
  <metadata id="CorelCorpID_0Corel-Layer"/>
  <path class="fil0" d="M0 756000l0 -724000 185000 185000 0 493000 -116000 115000 -69000 -69000zm1328000 0l0 -724000 185000 185000 0 493000 -116000 115000 -69000 -69000zm185000 254000l0 493000 -185000 185000 0 -722000 69000 -72000 116000 116000zm813000 -1010000l-182000 185000 -599000 0 -182000 -185000 963000 0zm0 1722000l-963000 0 182000 -184000 599000 0 182000 184000zm-160000 -953000l94000 92000 -94000 92000 -643000 0 -91000 -92000 91000 -92000 643000 0zm10000 -59000l0 -493000 185000 -185000 0 724000 -68000 69000 -117000 -115000zm185000 256000l0 722000 -185000 -185000 0 -493000 117000 -116000 68000 72000zm-2176000 44000l0 493000 -185000 185000 0 -722000 69000 -72000 116000 116000zm813000 -1010000l-182000 185000 -599000 0 -183000 -185000 964000 0zm0 1722000l-964000 0 183000 -184000 599000 0 182000 184000zm-160000 -953000l93000 92000 -93000 92000 -643000 0 -91000 -92000 91000 -92000 643000 0zm10000 -59000l0 -493000 184000 -185000 0 724000 -67000 69000 -117000 -115000zm184000 256000l0 722000 -184000 -185000 0 -493000 117000 -116000 67000 72000z"/>
 </g>
</svg>
