<?xml version="1.0" encoding="UTF-8"?>
<!DOCTYPE svg PUBLIC "-//W3C//DTD SVG 1.1//EN" "http://www.w3.org/Graphics/SVG/1.1/DTD/svg11.dtd">
<!-- Creator: CorelDRAW 2019 (64 Bit) -->
<svg xmlns="http://www.w3.org/2000/svg" xml:space="preserve" width="22px" height="22px" version="1.1" style="shape-rendering:geometricPrecision; text-rendering:geometricPrecision; image-rendering:optimizeQuality; fill-rule:evenodd; clip-rule:evenodd"
viewBox="0 0 373000 373000"
 xmlns:xlink="http://www.w3.org/1999/xlink"
 xmlns:xodm="http://www.corel.com/coreldraw/odm/2003">
 <defs>
  <style type="text/css">
   <![CDATA[
    .fil0 {fill:#878787}
   ]]>
  </style>
 </defs>
 <g id="Camada_x0020_1">
  <metadata id="CorelCorpID_0Corel-Layer"/>
  <path class="fil0" d="M186000 0c-49000,0 -96000,19000 -131000,55000 -36000,35000 -55000,82000 -55000,131000 0,50000 19000,97000 55000,132000 35000,35000 82000,55000 131000,55000 50000,0 97000,-20000 132000,-55000 35000,-35000 55000,-82000 55000,-132000 0,-49000 -20000,-96000 -55000,-131000 -35000,-36000 -82000,-55000 -132000,-55000zm0 338000c-84000,0 -152000,-68000 -152000,-152000 0,-84000 68000,-152000 152000,-152000 84000,0 152000,68000 152000,152000 0,84000 -68000,152000 -152000,152000zm16000 -159000l0 -67000c0,-10000 -8000,-17000 -17000,-17000 -10000,0 -17000,7000 -17000,17000l0 74000c0,5000 2000,9000 5000,12000l36000 37000c3000,3000 8000,5000 12000,5000 5000,0 9000,-2000 12000,-5000 7000,-7000 7000,-18000 0,-24000l-31000 -32000z"/>
 </g>
</svg>
