<?xml version="1.0" encoding="UTF-8"?>
<!-- <!DOCTYPE svg PUBLIC "-//W3C//DTD SVG 1.1//EN" "http://www.w3.org/Graphics/SVG/1.1/DTD/svg11.dtd"> -->
<!-- Creator: CorelDRAW 2019 (64 Bit) -->
<svg xmlns="http://www.w3.org/2000/svg" xml:space="preserve" width="26px" height="26px" version="1.1" style="shape-rendering:geometricPrecision; text-rendering:geometricPrecision; image-rendering:optimizeQuality; fill-rule:evenodd; clip-rule:evenodd"
viewBox="0 0 947 913"
 xmlns:xlink="http://www.w3.org/1999/xlink"
 xmlns:xodm="http://www.corel.com/coreldraw/odm/2003">
 <defs>
  <style type="text/css">
   <![CDATA[
    .fil0 {fill:#0069C0}
   ]]>
  </style>
 </defs>
 <g id="Camada_x0020_1">
  <metadata id="CorelCorpID_0Corel-Layer"/>
  <path class="fil0" d="M804 913l143 -243 -126 -213 126 -214 -143 -243 -285 0 -125 213 -251 0 -143 244 143 243 251 0 125 213 285 0zm-310 -671l42 -73 42 -72 84 0 84 0 42 72 42 73 -42 72 -42 73 -84 0 -84 0 -42 -73 -42 -72zm0 432l42 -73 42 -72 84 0 84 0 42 72 42 73 -42 72 -42 73 -84 0 -84 0 -42 -73 -42 -72zm-375 -218l42 -73 42 -72 84 0 84 0 42 72 42 73 -42 72 -42 73 -84 0 -84 0 -42 -73 -42 -72zm434 398l-108 -184 108 -183 217 0 107 183 -107 184 -217 0zm-376 -214l-108 -183 108 -184 217 0 107 184 -107 183 -217 0zm376 -213l-108 -184 108 -183 217 0 107 183 -107 184 -217 0z"/>
 </g>
</svg>
