<?xml version="1.0" encoding="UTF-8"?>
<!DOCTYPE svg PUBLIC "-//W3C//DTD SVG 1.1//EN" "http://www.w3.org/Graphics/SVG/1.1/DTD/svg11.dtd">
<!-- Creator: CorelDRAW 2019 (64 Bit) -->
<svg xmlns="http://www.w3.org/2000/svg" xml:space="preserve" width="22px" height="22px" version="1.1" style="shape-rendering:geometricPrecision; text-rendering:geometricPrecision; image-rendering:optimizeQuality; fill-rule:evenodd; clip-rule:evenodd"
viewBox="0 0 356000 309000"
 xmlns:xlink="http://www.w3.org/1999/xlink"
 xmlns:xodm="http://www.corel.com/coreldraw/odm/2003">
 <defs>
  <style type="text/css">
   <![CDATA[
    .fil0 {fill:#FFF}
   ]]>
  </style>
 </defs>
 <g id="Camada_x0020_1">
  <metadata id="CorelCorpID_0Corel-Layer"/>
  <path class="fil0" d="M47000 121000l0 108000c0,32000 25000,57000 56000,57000 23000,0 44000,-14000 52000,-36000l72000 -180000c5000,-11000 15000,-17000 26000,-17000 15000,0 27000,12000 27000,27000l0 108000 -6000 2000c-24000,9000 -41000,32000 -41000,58000 0,34000 28000,61000 61000,61000 34000,0 62000,-27000 62000,-61000 0,-26000 -17000,-49000 -41000,-58000l-6000 -2000 0 -108000c0,-31000 -25000,-57000 -56000,-57000 -23000,0 -44000,14000 -53000,36000l-72000 180000c-4000,11000 -14000,17000 -25000,17000 -15000,0 -27000,-12000 -27000,-27000l0 -108000 6000 -2000c24000,-9000 40000,-32000 40000,-58000 0,-34000 -27000,-61000 -61000,-61000 -34000,0 -61000,27000 -61000,61000 0,26000 16000,49000 41000,58000l6000 2000zm247000 95000c18000,0 32000,14000 32000,32000 0,18000 -14000,32000 -32000,32000 -17000,0 -32000,-14000 -32000,-32000 0,-18000 15000,-32000 32000,-32000zm-201000 -155000c0,18000 -14000,32000 -32000,32000 -17000,0 -32000,-14000 -32000,-32000 0,-17000 15000,-32000 32000,-32000 18000,0 32000,15000 32000,32000z"/>
 </g>
</svg>
