<?xml version="1.0" encoding="UTF-8"?>
<!DOCTYPE svg PUBLIC "-//W3C//DTD SVG 1.1//EN" "http://www.w3.org/Graphics/SVG/1.1/DTD/svg11.dtd">
<!-- Creator: CorelDRAW 2019 (64 Bit) -->
<svg xmlns="http://www.w3.org/2000/svg" xml:space="preserve" width="22px" height="22px" version="1.1" style="shape-rendering:geometricPrecision; text-rendering:geometricPrecision; image-rendering:optimizeQuality; fill-rule:evenodd; clip-rule:evenodd"
viewBox="0 0 38100 38200"
 xmlns:xlink="http://www.w3.org/1999/xlink"
 xmlns:xodm="http://www.corel.com/coreldraw/odm/2003">
 <defs>
  <style type="text/css">
   <![CDATA[
    .fil0 {fill:#0069C0;fill-rule:nonzero}
   ]]>
  </style>
 </defs>
 <g id="Camada_x0020_1">
  <metadata id="CorelCorpID_0Corel-Layer"/>
  <path class="fil0" d="M36100 18200c-1000,-200 -2000,600 -2100,1600 -400,3100 -1900,5800 -4000,8000 -4500,4400 -11100,5300 -16400,2600l-2600 2900c2800,1600 5900,2400 9000,2400 4600,0 9200,-1700 12700,-5200 2700,-2800 4500,-6300 5000,-10200 200,-1000 -500,-2000 -1600,-2100zm-23800 5900l-3200 0 4000 -7200c400,-600 -100,-1500 -900,-1500l-6700 0c-500,0 -900,200 -1000,700l-4400 11800c-300,700 200,1400 900,1400l2400 0 -2500 7800c-300,900 800,1500 1500,800l10700 -12100c600,-600 100,-1700 -800,-1700zm7700 -16200c-1100,0 -1900,900 -1900,2000l0 8000c0,800 500,1600 1400,1800l5800 1700c200,0 400,0 600,0 800,0 1600,-500 1800,-1400 300,-1000 -300,-2000 -1300,-2300l-4500 -1300 0 -6500c0,-1100 -900,-2000 -1900,-2000zm16100 -5800c-1000,0 -1900,900 -1900,2000l0 2700 -1500 -1600c-7000,-6900 -18300,-6900 -25300,0 -2200,2200 -3700,4800 -4500,7600 700,-600 1600,-900 2600,-900l1800 0c700,-1400 1600,-2800 2800,-4000 5500,-5500 14400,-5500 19900,0l1500 1500 -2700 0c-1000,0 -1900,900 -1900,1900 0,1100 800,2000 1900,2000l7300 0c1100,0 2000,-900 2000,-2000l0 -7300c0,-1000 -900,-1900 -2000,-1900z"/>
 </g>
</svg>
