<?xml version="1.0" encoding="UTF-8"?>
<!DOCTYPE svg PUBLIC "-//W3C//DTD SVG 1.1//EN" "http://www.w3.org/Graphics/SVG/1.1/DTD/svg11.dtd">
<!-- Creator: CorelDRAW 2019 (64 Bit) -->
<svg xmlns="http://www.w3.org/2000/svg" xml:space="preserve" width="22px" height="22px" version="1.1" style="shape-rendering:geometricPrecision; text-rendering:geometricPrecision; image-rendering:optimizeQuality; fill-rule:evenodd; clip-rule:evenodd"
viewBox="0 0 349 195"
 xmlns:xlink="http://www.w3.org/1999/xlink"
 xmlns:xodm="http://www.corel.com/coreldraw/odm/2003">
 <defs>
  <style type="text/css">
   <![CDATA[
    .fil0 {fill:#878787;fill-rule:nonzero}
   ]]>
  </style>
 </defs>
 <g id="Camada_x0020_1">
  <metadata id="CorelCorpID_0Corel-Layer"/>
  <path class="fil0" d="M349 175c0,-30 -8,-58 -21,-84l-19 11c12,22 19,47 19,73l21 0zm-26 -91c-14,-23 -34,-44 -57,-58l-12 19c20,12 38,29 50,49l19 -10 0 0zm-65 -63c-23,-12 -51,-20 -79,-21l0 22 0 0c25,2 48,8 68,19l11 -20zm-88 -21c-28,1 -56,9 -79,21l11 20c20,-11 43,-17 68,-19l0 0 0 -22zm-86 26c-23,14 -44,35 -58,58l19 10c12,-20 29,-37 49,-49l-10 -19 0 0zm-62 65c-15,26 -22,54 -22,84l22 0c0,-26 7,-51 19,-73l-19 -11zm8 84l107 0c0,-9 2,-19 8,-25 14,-15 35,-17 51,-7l60 -60 6 5 -60 61c8,7 10,16 10,26l107 0c0,-78 -61,-143 -140,-144l-9 0c-78,1 -140,66 -140,144zm160 -14c7,9 6,21 -3,29 -7,6 -18,6 -26,0 -8,-8 -8,-20 -2,-29 9,-10 23,-8 31,0z"/>
 </g>
</svg>
