<!-- Generated by IcoMoon.io -->
<svg version="1.1" xmlns="http://www.w3.org/2000/svg" width="32" height="32" viewBox="0 0 32 32">
<title>sucesso</title>
<path d="M15.997 32c8.837 0 16.003-7.166 16.003-16.003 0-8.831-7.166-15.997-16.003-15.997-8.831 0-15.997 7.166-15.997 15.997 0 0.199 0.006 0.398 0.011 0.591h3.648c0.551 0 0.994 0.443 0.994 0.994v9.695c0.318 0.324 0.648 0.625 0.989 0.921v-10.951c0-0.483 0.091-0.636 0.125-0.693l0.017-0.028c0.239-0.352 0.466-0.676 0.676-0.983 1.961-2.824 2.62-3.779 2.5-5.524-0.131-1.875 0.114-3.165 1.733-3.33 0.091-0.011 0.188-0.011 0.284-0.011 0.455 0 1.341 0.114 2.137 0.892 0.761 0.756 1.227 1.926 1.381 3.472 0.108 1.154-0.421 3.012-0.744 4.006 1.773 0 6.365 0 6.899 0 1.165 0 2.415 0.761 2.415 2.432 0 1.006-0.54 1.563-0.989 1.853-0.017 0.011-0.034 0.023-0.051 0.028 0.261 0.313 0.494 0.75 0.494 1.335 0 0.892-0.534 1.506-1.193 1.864 0.273 0.352 0.409 0.784 0.409 1.296 0 0.642-0.239 1.443-1.267 1.926 0.188 0.347 0.313 0.796 0.222 1.375-0.171 1.085-1.517 2.182-3.756 2.182h-9.434c-0.131 0-0.25-0.006-0.369-0.023 2.535 1.693 5.586 2.682 8.865 2.682zM6.638 28.033c0.080 0.131 0.364 0.318 0.864 0.318h9.433c1.051 0 1.711-0.278 2.080-0.506 0.46-0.29 0.659-0.619 0.693-0.841 0.068-0.438-0.040-0.75-0.398-1.12l-0.591-0.614 0.824-0.21c1.068-0.273 1.205-0.784 1.205-1.205 0-0.483-0.199-0.801-0.619-1.012l-1.267-0.619 1.375-0.307c0.301-0.068 1.29-0.358 1.29-1.222 0-0.71-0.676-1.034-0.682-1.034l-1.574-0.727 1.711-0.216c0.119-0.017 1.091-0.205 1.091-1.239 0-1.37-1.182-1.438-1.421-1.438-0.665 0-7.524-0.006-7.592-0.006h-0.71l0.244-0.665c0.29-0.796 1.023-3.097 0.915-4.234-0.125-1.313-0.494-2.273-1.091-2.864-0.54-0.529-1.131-0.608-1.438-0.608-0.063 0-0.125 0.006-0.182 0.011-0.438 0.045-0.591 0.176-0.688 0.375-0.176 0.341-0.227 0.96-0.159 1.898 0.074 1.046-0.085 1.858-0.54 2.807-0.432 0.892-1.108 1.87-2.131 3.353-0.199 0.284-0.409 0.585-0.631 0.909-0.006 0.057-0.011 0.159-0.011 0.227v10.786z"></path>
</svg>
