<!-- Generated by IcoMoon.io -->
<svg version="1.1" xmlns="http://www.w3.org/2000/svg" width="30" height="30" viewBox="0 0 23 32" fill="#FFF">
<title>msg_aviso_sistema_nao_lido</title>
<path d="M22.873 0h-22.889v17.222h22.889v-17.222zM0.317 22.444l2.333 0.444c0.222 0.889 0.667 1.778 1.111 2.667l-1.111 1.889c-0.111 0.111-0.111 0.333 0 0.556l1.667 1.667c0.222 0.111 0.444 0.111 0.667 0l1.889-1.222c0.889 0.444 1.778 0.778 2.667 1l0.444 2.222c0.111 0.222 0.333 0.333 0.556 0.333h2.333c0.222 0 0.444-0.111 0.444-0.333l0.556-2.333c0.889-0.222 1.778-0.667 2.556-1.111l1.889 1.111c0.111 0.111 0.444 0.111 0.556 0l1.667-1.667c0.111-0.222 0.222-0.444 0.111-0.556l-1.333-2c0.556-0.889 0.889-1.778 1-2.667l2.222-0.444c0.222-0.111 0.333-0.333 0.333-0.556v-0.444c0-0.222-0.222-0.444-0.444-0.444h-5c0 1.667-0.667 3.333-2 4.556-2.222 2-5.667 2-8 0-1.333-1.222-2-2.889-2-4.556h-5.444v1.444c0 0.222 0.111 0.333 0.333 0.444zM20.317 1.444l-8.889 7.667-8.889-7.667h17.778zM1.429 15.778v-13.444l10 8.667 10-8.667v13.444h-20z"></path>
</svg>
