<!-- Generated by IcoMoon.io -->
<svg version="1.1" xmlns="http://www.w3.org/2000/svg" width="30" height="30" color="#FFF" viewBox="0 0 20 32" fill="#FFF">
<title>msg_aviso_sistema_lido</title>
 
<path d="M19.534 6.384l-9.778-6.384-9.778 6.384v13.010h19.556v-13.010zM0.302 23.838l1.939 0.485c0.242 0.727 0.566 1.535 0.97 2.182l-0.97 1.616c-0.081 0.162-0.081 0.323 0 0.485l1.455 1.455c0.162 0.081 0.323 0.162 0.485 0l1.697-1.050c0.727 0.404 1.455 0.727 2.263 0.889l0.404 1.859c0.081 0.162 0.242 0.242 0.404 0.242h2.020c0.162 0 0.323-0.081 0.404-0.242l0.404-2.020c0.808-0.162 1.535-0.485 2.182-0.97l1.616 1.050c0.162 0.081 0.404 0.081 0.485-0.081l1.455-1.374c0.081-0.162 0.162-0.404 0.081-0.566l-1.131-1.616c0.404-0.727 0.727-1.535 0.889-2.263l1.859-0.404c0.162-0.081 0.323-0.242 0.323-0.404v-0.404c0-0.242-0.162-0.404-0.404-0.404h-4.202c0 1.374-0.646 2.828-1.778 3.798-1.939 1.697-4.848 1.697-6.788 0-1.131-0.97-1.778-2.424-1.778-3.798h-4.606v1.131c0 0.242 0.162 0.404 0.323 0.404zM6.362 12.768l-5.253 4.929v-10.182l5.253 5.253zM9.756 11.232l7.434 6.949h-14.95l7.515-6.95zM13.069 12.768l5.333-5.253v10.182l-5.333-4.929zM17.675 6.545l-5.414 5.495-2.505-2.343-2.505 2.343-5.414-5.414 7.919-5.253 7.919 5.172z"></path>
</svg>
