<?xml version="1.0" encoding="UTF-8"?>
<!DOCTYPE svg PUBLIC "-//W3C//DTD SVG 1.1//EN" "http://www.w3.org/Graphics/SVG/1.1/DTD/svg11.dtd">
<!-- Creator: CorelDRAW 2019 (64 Bit) -->
<svg xmlns="http://www.w3.org/2000/svg" xml:space="preserve" width="22px" height="22px" version="1.1" style="shape-rendering:geometricPrecision; text-rendering:geometricPrecision; image-rendering:optimizeQuality; fill-rule:evenodd; clip-rule:evenodd"
viewBox="0 0 141000 156000"
 xmlns:xlink="http://www.w3.org/1999/xlink"
 xmlns:xodm="http://www.corel.com/coreldraw/odm/2003">
 <defs>
  <style type="text/css">
   <![CDATA[
    .fil0 {fill:#FFF}
   ]]>
  </style>
 </defs>
 <g id="Camada_x0020_1">
  <metadata id="CorelCorpID_0Corel-Layer"/>
  <path class="fil0" d="M0 85000c0,-13000 4000,-26000 11000,-37000 0,1000 1000,1000 1000,1000 1000,3000 2000,6000 4000,8000 -4000,8000 -6000,16000 -7000,25000l25000 0c0,-2000 0,-3000 0,-4000 0,0 0,0 0,0l1000 0 0 0c4000,3000 8000,5000 13000,5000 0,0 0,0 0,0 0,2000 1000,4000 1000,6000l-7000 0c0,9000 1000,18000 3000,27000 7000,-2000 15000,-2000 22000,-3000l0 -10000c1000,0 2000,0 4000,0 1000,0 2000,0 3000,0l0 10000c8000,1000 15000,1000 22000,3000 2000,-9000 4000,-18000 4000,-27000l-8000 0c1000,-2000 2000,-4000 2000,-7000 1000,0 2000,0 4000,0l2000 0 0 -1000c3000,-1000 5000,-2000 7000,-5000 0,2000 0,4000 0,6000l25000 0c-1000,-9000 -3000,-18000 -7000,-25000 2000,-3000 3000,-6000 4000,-9000 0,0 1000,0 1000,-1000 7000,11000 11000,24000 11000,38000 0,39000 -31000,71000 -70000,71000 -39000,0 -71000,-32000 -71000,-71000zm130000 -61000c-16000,-15000 -37000,-24000 -59000,-24000 -22000,0 -44000,9000 -59000,26000 -3000,2000 -3000,6000 0,8000 1000,1000 2000,1000 4000,1000 1000,0 3000,-1000 4000,-2000 13000,-14000 31000,-22000 51000,-22000 19000,0 37000,8000 51000,21000 2000,3000 5000,3000 8000,0 2000,-2000 2000,-6000 0,-8000zm-59000 -2000c-17000,0 -32000,7000 -44000,20000 -2000,2000 -2000,5000 1000,7000 1000,2000 2000,2000 3000,2000 2000,0 3000,-1000 5000,-2000 9000,-10000 22000,-15000 35000,-15000 13000,0 25000,5000 35000,14000 2000,2000 6000,2000 8000,0 2000,-2000 2000,-6000 0,-8000 -12000,-11000 -27000,-18000 -43000,-18000zm0 25000c-10000,0 -20000,5000 -27000,13000 -3000,2000 -3000,6000 0,8000 1000,1000 2000,1000 4000,1000 1000,0 3000,0 4000,-2000 5000,-5000 12000,-8000 19000,-8000 7000,0 14000,2000 19000,7000 2000,3000 5000,3000 8000,0 2000,-2000 2000,-5000 0,-7000 -7000,-8000 -17000,-12000 -27000,-12000zm9000 33000c0,-5000 -4000,-9000 -9000,-9000 -5000,0 -10000,4000 -10000,9000 0,5000 5000,10000 10000,10000 5000,0 9000,-5000 9000,-10000zm-4000 67000c9000,-4000 14000,-15000 18000,-24000 -7000,-1000 -13000,-2000 -20000,-2000l0 26000c1000,0 1000,0 2000,0zm-28000 -24000c3000,9000 9000,20000 18000,24000 0,0 0,0 1000,0l0 -26000c-7000,0 -13000,1000 -19000,2000zm-10000 -5000c-3000,-10000 -4000,-19000 -4000,-29000l-25000 0c1000,13000 6000,25000 13000,34000 5000,-2000 11000,-4000 16000,-5000zm69000 -29000c0,10000 -1000,19000 -3000,29000 5000,1000 10000,3000 15000,5000 8000,-9000 12000,-21000 13000,-34000l-25000 0zm-79000 40000c6000,6000 13000,11000 22000,14000 -5000,-5000 -8000,-12000 -10000,-18000 -4000,1000 -8000,2000 -12000,4000zm64000 14000c8000,-3000 15000,-8000 22000,-14000 -4000,-2000 -8000,-3000 -13000,-4000 -2000,6000 -5000,13000 -9000,18000z"/>
 </g>
</svg>
