<?xml version="1.0" encoding="UTF-8"?>
<!DOCTYPE svg PUBLIC "-//W3C//DTD SVG 1.1//EN" "http://www.w3.org/Graphics/SVG/1.1/DTD/svg11.dtd">
<!-- Creator: CorelDRAW 2019 (64 Bit) -->
<svg xmlns="http://www.w3.org/2000/svg" xml:space="preserve" width="22px" height="22px" version="1.1" style="shape-rendering:geometricPrecision; text-rendering:geometricPrecision; image-rendering:optimizeQuality; fill-rule:evenodd; clip-rule:evenodd"
viewBox="0 0 18300 16400"
 xmlns:xlink="http://www.w3.org/1999/xlink"
 xmlns:xodm="http://www.corel.com/coreldraw/odm/2003">
 <defs>
  <style type="text/css">
   <![CDATA[
    .fil0 {fill:#FFF}
   ]]>
  </style>
 </defs>
 <g id="Camada_x0020_1">
  <metadata id="CorelCorpID_0Corel-Layer"/>
  <path class="fil0" d="M0 10900c0,0 0,0 0,0 100,-300 400,-700 1000,-700 5500,0 10900,0 16300,0 700,0 1000,400 1000,700 0,0 0,0 0,0 -600,-3300 -1200,-6700 -1800,-10000 -100,-500 -200,-900 -1100,-900 -4100,0 -8300,0 -12500,0 -800,0 -900,400 -1100,900 -600,3300 -1200,6700 -1800,10000zm0 1000c0,-400 200,-900 1000,-900 5500,0 10900,0 16300,0 800,0 1100,500 1000,900l-400 3400c-100,400 -400,1100 -1400,1100 -4900,0 -9800,0 -14700,0 -1000,0 -1300,-700 -1300,-1100l-500 -3400zm11700 1200c400,0 700,300 700,600 0,300 -300,600 -700,600 -400,0 -700,-300 -700,-600 0,-300 300,-600 700,-600zm4300 0c400,0 700,300 700,600 0,300 -300,600 -700,600 -400,0 -700,-300 -700,-600 0,-300 300,-600 700,-600zm-2200 0c400,0 700,300 700,600 0,300 -300,600 -700,600 -400,0 -700,-300 -700,-600 0,-300 300,-600 700,-600zm-8700 -9700c-300,200 -300,600 0,800 200,200 600,200 800,0 900,-900 2000,-1400 3300,-1400 1200,0 2400,500 3300,1400 200,200 600,200 800,0 300,-300 100,-700 0,-800 -1100,-1100 -2600,-1700 -4100,-1700 -1600,0 -3000,600 -4100,1700zm2900 4100c0,600 500,1200 1200,1200 600,0 1100,-600 1100,-1200 0,-600 -500,-1200 -1100,-1200 -700,0 -1200,600 -1200,1200zm-1300 -2500c-200,300 -200,600 0,900 200,200 600,200 800,0 900,-1000 2400,-1000 3300,0 200,200 600,200 800,0 400,-400 200,-800 0,-900 -1300,-1300 -3500,-1300 -4900,0z"/>
 </g>
</svg>
