<?xml version="1.0" encoding="UTF-8"?>
<!DOCTYPE svg PUBLIC "-//W3C//DTD SVG 1.1//EN" "http://www.w3.org/Graphics/SVG/1.1/DTD/svg11.dtd">
<!-- Creator: CorelDRAW 2019 (64 Bit) -->
<svg xmlns="http://www.w3.org/2000/svg" xml:space="preserve" width="100px" height="50px" version="1.1" style="shape-rendering:geometricPrecision; text-rendering:geometricPrecision; image-rendering:optimizeQuality; fill-rule:evenodd; clip-rule:evenodd"
viewBox="0 0 7352000 21876000"
 xmlns:xlink="http://www.w3.org/1999/xlink"
 xmlns:xodm="http://www.corel.com/coreldraw/odm/2003">
 <defs>
  <style type="text/css">
   <![CDATA[
    .fil3 {fill:#D2D3D5}
    .fil2 {fill:#96989A}
    .fil1 {fill:#373435}
    .fil0 {fill:#ED3237}
   ]]>
  </style>
 </defs>
 <g id="Camada_x0020_1">
  <metadata id="CorelCorpID_0Corel-Layer"/>
  <g id="_1606770885792">
   <path class="fil0" d="M2020000 1042000c-489000,282000 -1203000,580000 -1203000,1124000l0 1871000 -739000 328000c-66000,29000 -96000,107000 -67000,174000l0 0c30000,66000 108000,96000 174000,67000l632000 -281000 0 3196000c0,419000 343000,762000 763000,762000l1523000 0 1146000 0 1523000 0c419000,0 762000,-343000 762000,-762000l0 -3207000 633000 280000c66000,30000 144000,-1000 173000,-67000l0 0c30000,-66000 0,-144000 -66000,-174000l-740000 -328000 0 -1859000c0,-544000 -713000,-842000 -1202000,-1124000 -1299000,-751000 -2005000,-758000 -3312000,0z"/>
   <path class="fil1" d="M1954000 4954000c1697000,-229000 1746000,-229000 3444000,0 171000,38000 221000,-16000 260000,-135000 93000,-281000 186000,-561000 279000,-842000 159000,-648000 -4682000,-647000 -4522000,0 93000,281000 186000,561000 279000,842000 39000,119000 89000,173000 260000,135000zm-665000 1365000c-6000,-520000 -13000,-1039000 -20000,-1558000 0,-108000 14000,-94000 55000,-1000 95000,222000 191000,444000 286000,666000 22000,52000 31000,111000 33000,168000l0 725000 -354000 0zm4773000 0c7000,-520000 14000,-1039000 21000,-1558000 0,-108000 -15000,-94000 -55000,-1000 -95000,222000 -191000,444000 -286000,666000 -22000,52000 -31000,111000 -33000,168000l0 725000 353000 0zm-4773000 319000c-6000,303000 -13000,606000 -20000,908000 0,97000 374000,-159000 374000,-339000l0 -569000 -354000 0zm4773000 0c7000,303000 14000,606000 21000,908000 0,97000 -374000,-159000 -374000,-339000l0 -569000 353000 0z"/>
   <path class="fil1" d="M2222000 719000l0 209000c-66000,36000 -133000,74000 -202000,114000 -98000,56000 -204000,113000 -312000,172000l0 -216000c-216000,124000 -458000,261000 -667000,392000 -196000,104000 -323000,-80000 -47000,-293000 639000,-494000 1908000,-1100000 2710000,-1097000 803000,-3000 2072000,603000 2711000,1097000 275000,213000 148000,397000 -47000,293000 -228000,-143000 -495000,-292000 -724000,-425000l0 249000c-108000,-59000 -215000,-116000 -312000,-172000 -69000,-40000 -137000,-78000 -202000,-114000l0 -236000c-1045000,-497000 -1855000,-488000 -2908000,27000zm2930000 -16000c13000,6000 25000,12000 38000,18000 -13000,-6000 -25000,-12000 -38000,-18000zm62000 30000l39000 20000c-13000,-7000 -26000,-14000 -39000,-20000z"/>
   <rect class="fil1" x="1532000" y="8283000" width="4288000" height="478000"/>
   <rect class="fil2" x="534000" y="8759000" width="6283000" height="13117000" rx="604000" ry="604000"/>
   <path class="fil3" d="M1138000 9301000l334000 0 0 12164000 -334000 0c-70000,0 -127000,-57000 -127000,-127000l0 -11909000c0,-70000 57000,-128000 127000,-128000zm593000 0l432000 0 0 12164000 -432000 0 0 -12164000zm692000 0l431000 0 0 12164000 -431000 0 0 -12164000zm691000 0l432000 0 0 12164000 -432000 0 0 -12164000zm692000 0l431000 0 0 12164000 -431000 0 0 -12164000zm691000 0l432000 0 0 12164000 -432000 0 0 -12164000zm692000 0l431000 0 0 12164000 -431000 0 0 -12164000zm691000 0l333000 0c71000,0 128000,58000 128000,128000l0 11909000c0,70000 -57000,127000 -128000,127000l-333000 0 0 -12164000z"/>
  </g>
 </g>
</svg>
