<?xml version="1.0" encoding="UTF-8"?>
<!DOCTYPE svg PUBLIC "-//W3C//DTD SVG 1.1//EN" "http://www.w3.org/Graphics/SVG/1.1/DTD/svg11.dtd">
<!-- Creator: CorelDRAW 2019 (64 Bit) -->
<svg xmlns="http://www.w3.org/2000/svg" xml:space="preserve" width="22px" height="22px" version="1.1" style="shape-rendering:geometricPrecision; text-rendering:geometricPrecision; image-rendering:optimizeQuality; fill-rule:evenodd; clip-rule:evenodd"
viewBox="0 0 214 244"
 xmlns:xlink="http://www.w3.org/1999/xlink"
 xmlns:xodm="http://www.corel.com/coreldraw/odm/2003">
 <defs>
  <style type="text/css">
   <![CDATA[
    .fil0 {fill:#878787;fill-rule:nonzero}
   ]]>
  </style>
 </defs>
 <g id="Camada_x0020_1">
  <metadata id="CorelCorpID_0Corel-Layer"/>
  <path class="fil0" d="M191 50l14 10c1,1 2,1 3,1 3,0 6,-2 6,-6 0,-1 -1,-3 -2,-4l-38 -28c-1,0 -3,-1 -4,-1 -3,0 -6,3 -6,6 0,2 1,4 3,5l14 10 -8 11c-17,-14 -38,-22 -60,-23l0 -19 17 0c3,0 6,-3 6,-6 0,-3 -3,-6 -6,-6l-47 0c-3,0 -6,3 -6,6 0,3 3,6 6,6l18 0 0 19c-57,3 -101,49 -101,106 0,59 48,107 107,107 58,0 106,-48 106,-107 0,-28 -11,-55 -31,-75 0,0 0,-1 0,-1l9 -11zm-84 17c0,0 0,0 0,0 -39,0 -71,31 -71,70 0,39 32,70 71,70 38,0 70,-31 70,-70 0,-39 -32,-70 -70,-70l0 0zm-6 25c0,-4 2,-6 6,-6 3,0 6,2 6,6l0 39 29 0c3,0 5,3 5,6 0,3 -2,6 -5,6l-40 0 -1 -51zm88 45c0,45 -37,82 -82,82 -46,0 -82,-37 -82,-82 0,-45 36,-82 82,-82 0,0 0,0 0,0 45,0 82,37 82,82l0 0z"/>
 </g>
</svg>
